<svg xmlns="http://www.w3.org/2000/svg" width="220" height="64" viewBox="0 0 220 64" fill="none">
  <defs>
    <linearGradient id="g" x1="0" y1="0" x2="220" y2="64" gradientUnits="userSpaceOnUse">
      <stop stop-color="#2874F0"/>
      <stop offset="1" stop-color="#1D5CD6"/>
    </linearGradient>
    <filter id="s" x="-10" y="-10" width="240" height="84" color-interpolation-filters="sRGB">
      <feDropShadow dx="0" dy="6" stdDeviation="6" flood-color="#0B2B6C" flood-opacity="0.25"/>
    </filter>
  </defs>
  <g filter="url(#s)">
    <rect x="6" y="10" width="48" height="44" rx="12" fill="url(#g)"/>
    <path d="M23 24h14c1.1 0 2 .9 2 2v3H28c-1.1 0-2 .9-2 2v2h13v3c0 1.1-.9 2-2 2H23V24Z" fill="#fff"/>
    <path d="M25 42h-2.5a1.5 1.5 0 0 1 0-3H25a1.5 1.5 0 0 1 0 3Zm14 0h-2.5a1.5 1.5 0 0 1 0-3H39a1.5 1.5 0 0 1 0 3Z" fill="#FFC200"/>
    <path d="M15 28h6" stroke="#FFC200" stroke-width="3" stroke-linecap="round"/>
  </g>
  <text x="66" y="40" font-family="Segoe UI, Arial, sans-serif" font-size="26" font-weight="800" fill="#ffffff" stroke="#0B2B6C" stroke-opacity="0.12" stroke-width="2">
    FlipkartX
  </text>
  <text x="66" y="56" font-family="Segoe UI, Arial, sans-serif" font-size="12" font-weight="600" fill="#FFE08A">
    Big Deals " Fast Delivery
  </text>
</svg>

